<svg width="26" height="26" viewBox="0 0 26 26" fill="none" xmlns="http://www.w3.org/2000/svg">
    <path d="M24.046 10.14c.279-.79.43-1.639.43-2.523C24.477 3.417 21.06 0 16.86 0H7.617C3.417 0 0 3.417 0 7.617c0 1.954.74 3.738 1.954 5.088a7.575 7.575 0 0 0-.43 2.53c0 4.227 3.417 7.667 7.617 7.667h3.627l4.429 2.969a.761.761 0 0 0 1.186-.633v-2.336h.734a.76.76 0 0 0 .329-.074C23.144 22.306 26 19.099 26 15.234c0-1.904-.69-3.693-1.954-5.093zM1.523 7.618a6.1 6.1 0 0 1 6.094-6.094h9.242a6.1 6.1 0 0 1 6.094 6.094 6.1 6.1 0 0 1-6.094 6.094H13a.762.762 0 0 0-.42.126l-3.44 2.268v-1.632a.762.762 0 0 0-.761-.762h-.762a6.1 6.1 0 0 1-6.094-6.094zm16.86 13.762h-.762a.762.762 0 0 0-.762.762v1.67l-3.435-2.303a.762.762 0 0 0-.424-.13H9.14c-3.36 0-6.093-2.756-6.093-6.144 0-.48.055-.95.163-1.408a7.574 7.574 0 0 0 3.346 1.335c.099.047.21.073.327.073h.734v2.286a.762.762 0 0 0 1.181.636l4.43-2.922h3.631a7.618 7.618 0 0 0 6.457-3.58 6.04 6.04 0 0 1 1.16 3.58c0 3.388-2.733 6.145-6.093 6.145z" fill="#fff"/>
    <path d="M7.617 6.094c-.84 0-1.523.683-1.523 1.523 0 .84.683 1.524 1.523 1.524.84 0 1.524-.684 1.524-1.524s-.684-1.523-1.524-1.523zM12.238 6.094c-.84 0-1.523.683-1.523 1.523 0 .84.683 1.524 1.523 1.524.84 0 1.524-.684 1.524-1.524s-.684-1.523-1.524-1.523zM16.86 6.094c-.84 0-1.524.683-1.524 1.523 0 .84.683 1.524 1.523 1.524.84 0 1.524-.684 1.524-1.524s-.684-1.523-1.524-1.523z" fill="#fff"/>
</svg>
